<?xml version="1.0" encoding="utf-8"?>
<!-- Generator: Adobe Illustrator 25.0.0, SVG Export Plug-In . SVG Version: 6.00 Build 0)  -->
<svg version="1.1" id="Layer_1" xmlns="http://www.w3.org/2000/svg" xmlns:xlink="http://www.w3.org/1999/xlink" x="0px" y="0px"
	 viewBox="0 0 563.38 590.1" style="enable-background:new 0 0 563.38 590.1;" xml:space="preserve">
<style type="text/css">
	.st0{fill:#0E7139;}
	.st1{fill:#FDBD12;}
	.st2{fill:#FFFFFF;}
	.st3{fill:#CA2027;}
</style>
<g>
	<g>
		<path class="st0" d="M121.86,532.89c-0.86,0-2.13,0.87-3.8,2.59c-2,2.05-5.31,4.76-9.95,8.14c-3.71,2.7-6.84,4.05-9.38,4.06
			c-1.79,0.01-3.24-0.76-4.36-2.29c-0.83-1.14-1.24-2.36-1.25-3.65c-0.01-3.26,1.19-7.45,3.6-12.57c2.77-5.84,6.24-11.51,10.4-17
			c6.45-8.47,12.99-15.06,19.63-19.77c3.18-2.23,5.71-3.35,7.61-3.36c0.82,0,1.52,0.23,2.1,0.69c0.61,0.5,0.92,1.16,0.92,1.98
			c0.01,3.08-1.96,7.25-5.91,12.53c-2.53,3.41-5.81,6.75-9.84,10.02c-1.57,1.29-2.35,2.39-2.35,3.28c0,0.68,0.29,1.27,0.87,1.77
			c0.54,0.43,1.08,0.64,1.61,0.64c2.4-0.01,5.91-2.58,10.55-7.72c6.06-6.71,9.07-13.19,9.05-19.41c-0.01-2.04-0.57-3.81-1.68-5.31
			c-1.47-1.96-3.38-2.94-5.7-2.93c-4.62,0.02-10.14,2.72-16.56,8.11c-7.85,6.58-14.74,14.41-20.69,23.48
			c-6.4,9.83-9.59,18.43-9.57,25.8c0.01,2.65,0.7,4.99,2.07,7.02c1.91,2.82,4.31,4.23,7.21,4.21c2.47-0.01,5.38-0.99,8.74-2.93
			c1.46-0.83,3.41-2.09,5.84-3.78c-1.21,2.33-2.11,4.07-2.72,5.22c-3.02,5.7-4.82,9.14-5.38,10.33c-3.52,7.49-5.27,12.76-5.25,15.8
			c0,0.79,0.22,1.47,0.65,2.04c0.5,0.64,1.22,0.96,2.15,0.96c1.11,0,1.93-0.36,2.47-1.08c0.5-0.68,0.94-1.81,1.33-3.39
			c0.46-1.86,1.8-5.43,4.04-10.7c2.52-5.99,5.27-11.54,8.26-16.67c2.59-4.48,4.52-7.55,5.76-9.2c1.21-1.65,1.81-2.98,1.81-3.98
			c0-0.89-0.26-1.64-0.76-2.25C122.97,533.12,122.47,532.88,121.86,532.89z"/>
		<path class="st0" d="M155.05,537.11c-0.72,0-1.59,0.6-2.62,1.78c-5.84,6.89-11,10.35-15.47,10.36c-2.04,0.01-3.51-0.65-4.41-1.97
			c-0.4-0.57-0.6-1.25-0.6-2.04l0-0.97c7.26-2.21,12.68-6.19,16.27-11.92c1.74-2.76,2.61-5.09,2.6-6.99c0-1.22-0.47-2.2-1.41-2.95
			c-0.75-0.57-1.6-0.85-2.53-0.85c-3.44,0.01-7.45,2.39-12.05,7.13c-5.67,5.82-8.49,11.75-8.47,17.8c0.01,2.22,0.53,3.97,1.58,5.25
			c1.55,1.86,3.66,2.78,6.34,2.77c2.61-0.01,5.44-0.84,8.47-2.5c3.04-1.66,5.89-3.8,8.56-6.42c3.42-3.34,5.13-5.71,5.13-7.11
			c0-0.25-0.11-0.52-0.33-0.8C155.81,537.3,155.45,537.11,155.05,537.11z M140.75,529.33c1.71-1.4,3.03-2.11,3.96-2.11
			c0.68,0,1.02,0.35,1.02,1.07c0,0.68-0.26,1.45-0.8,2.31c-1.46,2.44-3.44,4.63-5.93,6.57c-1.43,1.08-3.39,2.05-5.89,2.92
			C135.13,535.4,137.68,531.81,140.75,529.33z"/>
		<path class="st0" d="M190.33,511.69c-1.72,0.01-4.56,0.55-8.53,1.64c0.64-1.11,1.62-2.56,2.94-4.36c1.99-2.76,2.99-4.61,2.99-5.54
			c0-0.46-0.22-0.93-0.65-1.39c-0.47-0.5-0.93-0.75-1.4-0.75c-0.64,0-1.39,0.45-2.25,1.35c-0.61,0.65-1.69,2.05-3.26,4.2
			c-2.81,3.88-4.84,6.94-6.08,9.2c-1.64,0.54-2.9,0.89-3.75,1.03c-2.36,0.33-3.68,0.57-3.97,0.71c-1.04,0.54-1.55,1.26-1.55,2.15
			c0,0.75,0.4,1.38,1.19,1.87c0.57,0.36,1.24,0.53,1.99,0.53c0.5,0,1.23-0.13,2.2-0.38c-2.73,5.48-4.4,8.95-5.01,10.38
			c-2.48,5.77-3.72,10.82-3.7,15.15c0.01,1.97,0.39,3.49,1.14,4.56c1.22,1.68,2.75,2.51,4.57,2.51c3.43-0.01,7.22-2.78,11.35-8.31
			c3.45-4.59,5.18-7.55,5.17-8.88c0-0.32-0.15-0.64-0.43-0.96c-0.32-0.32-0.72-0.48-1.18-0.48c-0.79,0-1.52,0.59-2.19,1.78
			c-1.25,2.08-2.67,4.16-4.27,6.24c-2.53,3.37-4.69,5.06-6.47,5.07c-0.75,0-1.32-0.23-1.69-0.69c-0.38-0.46-0.57-1.14-0.57-2.04
			c-0.01-3.15,1.38-7.91,4.19-14.29c1.95-4.48,4.08-8.53,6.4-12.16c1.29-0.43,2.59-0.85,3.91-1.25c4.79-1.41,7.49-2.1,8.1-2.07
			c1.5-0.15,2.43-0.33,2.79-0.55c0.68-0.4,1.02-1.01,1.01-1.83C193.29,512.51,192.3,511.69,190.33,511.69z"/>
		<path class="st0" d="M263.22,522.91c0.57-0.15,1.08-0.55,1.53-1.21c0.44-0.66,0.67-1.34,0.66-2.02c-0.01-1.57-1.05-2.36-3.12-2.35
			c-0.68,0-1.54,0.03-2.58,0.06c-0.22,0.04-0.64,0.06-1.29,0.06c0.46-2.37,1.36-5.77,2.7-10.21c1.56-5.02,3.18-9.73,4.89-14.14
			c0.99-2.51,1.49-4.26,1.48-5.27c0-0.82-0.29-1.57-0.87-2.25c-0.68-0.75-1.49-1.12-2.42-1.12c-1.5,0.01-3.66,1.38-6.48,4.1
			c-4.85,4.64-9.55,9.64-14.11,15.03c-6.34,7.36-10.19,12.03-11.54,14c-3.17,4.56-5.13,7.3-5.87,8.24c-1.57,0.72-3.7,1.52-6.38,2.39
			c-3.61,1.12-6.11,2.12-7.5,2.98c-0.86,0.51-1.28,1.37-1.28,2.58c0,0.54,0.15,1,0.43,1.39c0.4,0.64,0.95,0.96,1.67,0.96
			c0.57,0,1.29-0.2,2.14-0.6c1.79-0.79,3.75-1.5,5.9-2.11c-0.68,1.15-1.58,2.62-2.72,4.41c-2.95,4.66-5.16,8.27-6.62,10.82
			c-2.67,4.7-4,7.55-3.99,8.55c0,0.57,0.24,1.09,0.7,1.55c0.47,0.54,1.04,0.8,1.72,0.8c1.25,0,2.45-0.99,3.59-2.97
			c1.03-1.69,1.8-2.98,2.29-3.87l2.83-5c3.91-6.78,7.5-12.59,10.78-17.43c5.47-2.2,12.26-4.13,20.38-5.77
			c-0.42,2.26-1.07,5.5-1.95,9.72c-1.72,8.38-2.57,15.04-2.56,19.98c0.01,1.47,0.26,2.63,0.76,3.49c0.68,1.25,1.64,1.87,2.85,1.87
			c1.54-0.01,2.3-1.3,2.29-3.87c-0.04-1.57,0.41-5.84,1.35-12.78c1.82-10.45,3.16-16.96,4.01-19.5c1-0.25,2.52-0.38,4.56-0.39
			C262.41,523.02,263,522.98,263.22,522.91z M256.49,503.34c-1.31,3.51-2.12,5.86-2.44,7.04c-1.31,4.51-2.12,7.29-2.44,8.33
			c-4.29,0.95-7.06,1.6-8.31,1.96c-4.36,1.31-7.2,2.12-8.52,2.45c3.45-5.77,9.38-13.22,17.79-22.34c2.39-2.55,4.74-4.6,7.06-6.15
			C258.84,496.82,257.8,499.72,256.49,503.34z"/>
		<path class="st0" d="M286.91,527.49c0-0.61-0.24-1.16-0.7-1.66c-0.43-0.46-0.92-0.69-1.45-0.69c-0.97,0-1.95,0.63-2.95,1.89
			c-1.03,1.4-1.87,3-2.5,4.79c-1.21,3.3-2.64,6.31-4.31,9.03c-3.24,5.24-5.77,7.86-7.59,7.87c-0.43,0-0.76-0.13-0.99-0.4
			c-0.23-0.27-0.35-0.65-0.35-1.15c-0.01-1.97,0.88-4.69,2.65-8.17c1.53-2.98,3.77-6.24,6.73-9.8c1.32-1.54,1.98-2.66,1.97-3.34
			c0-0.39-0.18-0.79-0.54-1.18c-0.43-0.43-0.9-0.64-1.4-0.64c-0.9,0-2.04,0.6-3.43,1.78c-1.78,1.47-3.58,3.61-5.4,6.41
			c-3.91,5.99-5.86,11.3-5.85,15.91c0.01,1.54,0.35,2.86,1.04,3.97c0.97,1.57,2.33,2.35,4.09,2.35c2.04-0.01,4.09-1.16,6.16-3.46
			c1.18-1.29,2.53-3.01,4.06-5.17c0.11,1.54,0.21,2.47,0.28,2.79c0.37,2.43,1.21,4.29,2.54,5.57c1.47,1.43,3.1,2.13,4.89,2.13
			c0.79,0,1.46-0.24,2.01-0.71c0.55-0.47,0.83-1.02,0.83-1.67c0-1.04-0.4-1.79-1.19-2.25c-1.65-0.92-2.64-1.6-2.96-2.03
			c-1.19-1.57-1.78-3.46-1.79-5.68c-0.01-2.08,0.82-4.67,2.49-7.79C285.69,531.68,286.91,528.78,286.91,527.49z"/>
		<path class="st0" d="M313.88,535.44c-0.79,0-1.52,0.59-2.19,1.78c-1.25,2.08-2.67,4.16-4.27,6.24c-2.53,3.37-4.69,5.06-6.48,5.07
			c-0.75,0-1.32-0.23-1.69-0.69c-0.38-0.46-0.57-1.14-0.57-2.04c-0.01-3.15,1.38-7.91,4.19-14.29c1.95-4.48,4.08-8.53,6.4-12.16
			c1.29-0.43,2.59-0.85,3.91-1.25c4.79-1.41,7.49-2.1,8.1-2.07c1.5-0.15,2.43-0.33,2.79-0.55c0.68-0.4,1.02-1.01,1.01-1.83
			c-0.01-1.65-0.99-2.47-2.96-2.46c-1.72,0.01-4.56,0.55-8.53,1.64c0.64-1.11,1.62-2.56,2.94-4.36c1.99-2.76,2.99-4.61,2.99-5.54
			c0-0.46-0.22-0.93-0.65-1.39c-0.47-0.5-0.93-0.75-1.4-0.75c-0.64,0-1.39,0.45-2.25,1.35c-0.61,0.65-1.69,2.05-3.26,4.2
			c-2.81,3.88-4.84,6.94-6.08,9.2c-1.64,0.54-2.9,0.89-3.75,1.03c-2.36,0.33-3.68,0.57-3.97,0.71c-1.04,0.54-1.55,1.26-1.55,2.15
			c0,0.75,0.4,1.38,1.19,1.88c0.57,0.36,1.24,0.53,1.99,0.53c0.5,0,1.23-0.13,2.2-0.38c-2.73,5.48-4.4,8.95-5.01,10.38
			c-2.48,5.77-3.72,10.82-3.7,15.15c0.01,1.97,0.39,3.49,1.14,4.56c1.22,1.68,2.75,2.51,4.57,2.5c3.43-0.01,7.22-2.78,11.35-8.31
			c3.45-4.59,5.18-7.55,5.17-8.88c0-0.32-0.15-0.64-0.43-0.96C314.74,535.6,314.35,535.44,313.88,535.44z"/>
		<path class="st0" d="M350.11,534.07c-0.75,0-1.59,0.7-2.51,2.1c-4.55,6.89-7.8,10.34-9.73,10.34c-0.93,0-1.4-0.48-1.4-1.44
			c0-1,0.67-2.9,2.02-5.7c1.53-3.23,3.77-6.81,6.72-10.76c1.53-2.05,2.29-3.55,2.29-4.52c0-0.75-0.33-1.41-0.97-1.98
			c-0.58-0.5-1.17-0.75-1.77-0.74c-1.47,0-3.9,1.2-7.29,3.57c-2.64,1.87-5.28,4.19-7.92,6.95c0.92-2.79,3.42-8.03,7.51-15.7
			c3.8-7.17,7.62-13.75,11.47-19.74c1.14-1.69,1.71-3.03,1.7-4.03c0-0.64-0.18-1.22-0.54-1.72c-0.47-0.68-1.02-1.02-1.67-1.01
			c-0.68,0-1.32,0.33-1.93,0.97c-0.61,0.65-1.44,1.9-2.51,3.77c-4.48,7.71-8.55,15.15-12.21,22.32c-3.66,7.1-7.6,15.77-11.82,26.02
			c-2.27,5.52-3.4,8.87-3.4,10.05c0,0.72,0.22,1.32,0.65,1.82c0.43,0.46,0.99,0.69,1.67,0.69c0.97,0,1.68-0.7,2.14-2.1
			c5-12.26,11.14-20.24,18.43-23.96c-2.67,4.55-4.27,7.32-4.8,8.28c-2.24,4.09-3.35,7.73-3.34,10.91c0,1,0.22,1.91,0.66,2.73
			c0.68,1.32,1.8,1.98,3.33,1.97c1.47,0,3.11-0.64,4.93-1.9c2.57-1.84,5.03-4.48,7.38-7.92c2.7-3.95,4.06-6.62,4.05-8.01
			C351.24,534.49,350.86,534.06,350.11,534.07z"/>
		<path class="st0" d="M379.27,536.86c-0.32-0.39-0.68-0.59-1.08-0.59c-0.72,0-1.59,0.6-2.62,1.78c-5.84,6.89-11,10.35-15.47,10.36
			c-2.04,0.01-3.51-0.65-4.41-1.97c-0.4-0.57-0.6-1.25-0.6-2.04l0-0.97c7.26-2.21,12.68-6.19,16.27-11.92
			c1.74-2.76,2.61-5.09,2.6-6.99c0-1.22-0.47-2.2-1.41-2.95c-0.75-0.57-1.6-0.85-2.53-0.85c-3.44,0.01-7.45,2.39-12.05,7.13
			c-5.67,5.82-8.49,11.75-8.47,17.8c0.01,2.22,0.53,3.97,1.58,5.25c1.55,1.86,3.66,2.78,6.34,2.77c2.61-0.01,5.44-0.84,8.47-2.5
			c3.04-1.66,5.89-3.8,8.56-6.42c3.42-3.34,5.13-5.71,5.13-7.11C379.6,537.41,379.49,537.14,379.27,536.86z M363.89,528.49
			c1.71-1.4,3.03-2.11,3.96-2.11c0.68,0,1.02,0.35,1.02,1.07c0,0.68-0.26,1.45-0.8,2.31c-1.46,2.44-3.44,4.63-5.93,6.57
			c-1.43,1.08-3.39,2.05-5.89,2.92C358.27,534.56,360.82,530.97,363.89,528.49z"/>
		<path class="st0" d="M407.29,522.9c-2.54,0.01-7.54,3.68-14.99,11.01c-0.43,0.43-0.87,0.86-1.34,1.29
			c0.92-1.79,2.13-3.78,3.63-5.97c1.03-1.47,1.55-2.6,1.54-3.39c0-0.64-0.26-1.22-0.76-1.71c-0.43-0.43-0.88-0.64-1.34-0.64
			c-0.97,0-2.13,0.99-3.48,2.97c-1.35,2.01-3.2,5.24-5.55,9.68c-4.37,8.21-6.55,13.28-6.54,15.22c0,0.79,0.26,1.43,0.76,1.93
			c0.4,0.43,0.9,0.64,1.51,0.64c1.22,0,2.36-0.96,3.42-2.86c4.16-7.92,8.66-13.45,13.52-16.58c-3.63,5.88-5.43,11.24-5.41,16.07
			c0.01,2.51,0.5,4.63,1.47,6.38c1.01,1.86,2.25,2.78,3.71,2.78c0.64,0,1.2-0.26,1.66-0.76c0.43-0.4,0.64-0.81,0.64-1.24
			c0-0.46-0.26-1.11-0.76-1.93c-1.08-1.79-1.62-3.66-1.63-5.63c-0.02-6.08,3.37-13.13,10.17-21.13c1.25-1.47,1.87-2.75,1.86-3.82
			C409.39,523.66,408.69,522.9,407.29,522.9z"/>
		<path class="st0" d="M434.72,535.47c-0.32-0.32-0.72-0.48-1.18-0.48c-0.79,0-1.52,0.6-2.19,1.78c-1.25,2.08-2.67,4.16-4.27,6.24
			c-2.53,3.37-4.69,5.06-6.48,5.07c-0.75,0-1.32-0.23-1.69-0.69c-0.38-0.46-0.57-1.14-0.57-2.04c-0.01-3.15,1.38-7.91,4.19-14.29
			c1.95-4.48,4.08-8.53,6.4-12.16c1.29-0.43,2.59-0.85,3.91-1.25c4.79-1.41,7.49-2.1,8.1-2.07c1.5-0.15,2.43-0.33,2.79-0.55
			c0.68-0.4,1.02-1.01,1.01-1.83c-0.01-1.65-0.99-2.47-2.96-2.46c-1.72,0.01-4.56,0.55-8.53,1.64c0.64-1.11,1.62-2.56,2.94-4.36
			c1.99-2.76,2.99-4.61,2.99-5.54c0-0.46-0.22-0.93-0.65-1.39c-0.47-0.5-0.93-0.75-1.4-0.75c-0.64,0-1.39,0.45-2.25,1.35
			c-0.61,0.65-1.69,2.05-3.26,4.2c-2.81,3.88-4.84,6.94-6.08,9.2c-1.64,0.54-2.9,0.89-3.75,1.03c-2.36,0.33-3.68,0.57-3.97,0.71
			c-1.04,0.54-1.55,1.26-1.55,2.15c0,0.75,0.4,1.38,1.19,1.88c0.57,0.36,1.24,0.53,1.99,0.53c0.5,0,1.23-0.13,2.2-0.38
			c-2.73,5.49-4.4,8.95-5.01,10.38c-2.48,5.77-3.72,10.82-3.7,15.15c0.01,1.97,0.39,3.49,1.14,4.56c1.22,1.68,2.75,2.51,4.57,2.51
			c3.43-0.01,7.22-2.78,11.35-8.31c3.45-4.59,5.18-7.55,5.17-8.88C435.15,536.11,435.01,535.79,434.72,535.47z"/>
		<path class="st0" d="M456.04,511.39c1.4-0.01,2.84-0.89,4.34-2.65c1.57-1.83,2.35-3.5,2.34-5c-0.01-1.65-0.81-2.47-2.43-2.46
			c-1.11,0-2.36,0.73-3.75,2.16c-1.89,1.94-2.83,3.77-2.82,5.49c0,0.68,0.22,1.25,0.65,1.72
			C454.81,511.15,455.36,511.39,456.04,511.39z"/>
		<path class="st0" d="M452.12,523.11c0-0.39-0.15-0.79-0.43-1.18c-0.4-0.46-0.9-0.69-1.51-0.69c-0.68,0-1.34,0.35-1.98,1.03
			c-0.64,0.65-1.6,1.92-2.88,3.82c-3.99,5.81-6.87,11.12-8.64,15.92c-2.27,6.09-3.4,9.67-3.39,10.75c0,0.54,0.2,1.04,0.6,1.5
			c0.43,0.57,1,0.85,1.72,0.85c1.22,0,2.11-0.9,2.67-2.69c1.27-4.05,2.74-7.99,4.41-11.83c1.56-3.73,4.19-8.48,7.89-14.26
			C451.6,524.83,452.12,523.75,452.12,523.11z"/>
		<path class="st0" d="M476.11,536.71c-0.32-0.36-0.68-0.53-1.08-0.53c-0.68,0-1.48,0.67-2.41,1.99c-1.78,2.4-3.97,4.81-6.58,7.22
			c-3.07,2.8-5.73,4.21-7.98,4.22c-1.15,0-2.06-0.46-2.74-1.39c-0.47-0.61-0.7-1.3-0.71-2.09c-0.01-2.43,1.23-5.77,3.72-10
			c2.42-4.05,4.84-7.03,7.27-8.94c1.54-1.19,2.68-1.78,3.43-1.78c0.64,0,0.97,0.28,0.97,0.85c0,0.5-0.23,1.16-0.69,1.99
			c-0.68,1.22-1.34,2.14-1.98,2.75c-0.75,0.68-1.18,1.1-1.28,1.24c-0.29,0.36-0.43,0.84-0.42,1.45c0,1.15,0.51,1.72,1.51,1.71
			c1.18,0,2.56-1.01,4.12-3.02c2.03-2.66,3.04-5.29,3.03-7.9c-0.01-2.97-1.43-4.45-4.26-4.44c-1.72,0.01-3.72,0.84-6,2.49
			c-3.89,2.88-7.31,6.67-10.26,11.37c-3.06,4.92-4.58,9.23-4.57,12.95c0.01,1.9,0.51,3.54,1.52,4.93c1.4,1.89,3.43,2.83,6.08,2.82
			c4.4-0.02,9.29-3.04,14.67-9.07c3.38-3.84,5.08-6.43,5.07-7.75C476.54,537.42,476.4,537.06,476.11,536.71z"/>
	</g>
	<path class="st1" d="M427.1,62.16l-22.74,2.14c-2.21,0.21-3.7,2.36-3.12,4.5c2.23,8.36,7.29,15.45,14,20.31
		c1.79,1.3,4.33,0.66,5.31-1.32l10.1-20.48C431.89,64.8,429.89,61.9,427.1,62.16z"/>
	<path class="st1" d="M446.48,56.4l22.74-2.14c2.21-0.21,3.7-2.36,3.12-4.5c-2.23-8.36-7.29-15.45-14-20.31
		c-1.79-1.3-4.33-0.66-5.31,1.32l-10.1,20.48C441.69,53.77,443.69,56.67,446.48,56.4z"/>
	<path class="st1" d="M432.94,50.92c1.61,2.13,4.89,1.82,6.07-0.57l10.51-21.32c0.99-2-0.08-4.39-2.21-5.02
		c-4.4-1.32-9.12-1.82-13.98-1.37c-4.85,0.46-9.4,1.84-13.48,3.95c-1.98,1.02-2.57,3.57-1.23,5.35L432.94,50.92z"/>
	<path class="st1" d="M404,60.4l22.74-2.14c2.79-0.26,4.21-3.48,2.52-5.72l-13.74-18.23c-1.33-1.77-3.94-1.92-5.46-0.31
		c-5.69,6.02-9.34,13.94-9.97,22.56C399.93,58.78,401.79,60.61,404,60.4z"/>
	<path class="st1" d="M469.59,58.16l-22.74,2.14c-2.79,0.26-4.21,3.48-2.52,5.72l13.74,18.23c1.33,1.77,3.94,1.92,5.46,0.31
		c5.69-6.02,9.34-13.93,9.97-22.56C473.66,59.79,471.8,57.95,469.59,58.16z"/>
	<path class="st1" d="M440.64,67.64c-1.61-2.13-4.89-1.82-6.07,0.57l-10.51,21.32c-0.98,2,0.08,4.39,2.21,5.02
		c4.4,1.32,9.12,1.82,13.98,1.37c4.85-0.46,9.4-1.84,13.48-3.95c1.98-1.02,2.57-3.57,1.23-5.35L440.64,67.64z"/>
	<path class="st1" d="M477.71,55.43c-2.12-22.57-22.21-39.2-44.78-37.07c-22.57,2.12-39.2,22.21-37.07,44.78s22.21,39.2,44.78,37.07
		C463.21,98.08,479.84,77.99,477.71,55.43z M440.43,97.95c-21.32,2.01-40.3-13.71-42.31-35.03c-2.01-21.32,13.71-40.3,35.03-42.31
		s40.3,13.71,42.31,35.03C477.47,76.96,461.75,95.95,440.43,97.95z"/>
	<g>
		<g>
			<g>
				<g>
					<circle class="st2" cx="447.9" cy="46.97" r="0.92"/>
				</g>
				<g>
					<circle class="st2" cx="450.01" cy="51.46" r="0.92"/>
				</g>
				<g>
					<circle class="st2" cx="451.83" cy="47.91" r="1.23"/>
				</g>
				<g>
					<circle class="st2" cx="454.91" cy="51.85" r="0.92"/>
				</g>
				<g>
					<circle class="st2" cx="451.73" cy="41.42" r="0.92"/>
				</g>
				<g>
					<circle class="st2" cx="455.52" cy="44.19" r="1.23"/>
				</g>
				<g>
					<circle class="st2" cx="459.09" cy="49.72" r="0.92"/>
				</g>
				<g>
					<circle class="st2" cx="462.52" cy="45.37" r="0.92"/>
				</g>
				<g>
					<circle class="st2" cx="465.63" cy="52.71" r="0.92"/>
				</g>
				<g>
					<circle class="st2" cx="459.15" cy="37.39" r="0.61"/>
				</g>
				<g>
					<circle class="st2" cx="459.15" cy="45.1" r="0.61"/>
				</g>
				<g>
					<circle class="st2" cx="455.45" cy="37.4" r="1.23"/>
				</g>
			</g>
			<g>
				<g>
					<circle class="st2" cx="436.65" cy="36.23" r="0.78"/>
					<circle class="st2" cx="435.59" cy="39.68" r="0.78"/>
					<circle class="st2" cx="430.47" cy="34.95" r="1.96"/>
					<circle class="st2" cx="434.53" cy="43.13" r="0.78"/>
					<circle class="st2" cx="440.07" cy="37.68" r="0.78"/>
				</g>
			</g>
			<g>
				<g>
					<circle class="st2" cx="408.6" cy="54.54" r="0.92"/>
					<circle class="st2" cx="412.44" cy="45.02" r="0.61"/>
					<circle class="st2" cx="413.93" cy="49.44" r="1.22"/>
					<circle class="st2" cx="418.91" cy="56.29" r="0.92"/>
					<circle class="st2" cx="421.53" cy="50.35" r="0.92"/>
					<circle class="st2" cx="414.05" cy="55.59" r="1.22"/>
					<circle class="st2" cx="408.15" cy="48.67" r="0.92"/>
					<circle class="st2" cx="415.81" cy="41.3" r="1.53"/>
					<circle class="st2" cx="418.19" cy="46.09" r="0.92"/>
				</g>
			</g>
			<g>
				<g>
					<circle class="st2" cx="435.61" cy="76.09" r="0.96"/>
					<circle class="st2" cx="433.09" cy="83.3" r="0.96"/>
					<circle class="st2" cx="439.58" cy="82.85" r="1.29"/>
					<circle class="st2" cx="438.5" cy="88.25" r="1.61"/>
					<circle class="st2" cx="449.25" cy="86.85" r="1.29"/>
					<circle class="st2" cx="442.26" cy="77.59" r="1.61"/>
					<circle class="st2" cx="444.43" cy="82.6" r="0.96"/>
					<circle class="st2" cx="440.99" cy="73.3" r="1.29"/>
					<circle class="st2" cx="437.27" cy="79.45" r="0.64"/>
					<circle class="st2" cx="430.44" cy="88.25" r="0.96"/>
				</g>
			</g>
			<g>
				<g>
					<circle class="st2" cx="415.66" cy="75.5" r="1.57"/>
					<circle class="st2" cx="411.84" cy="69.31" r="0.78"/>
					<circle class="st2" cx="417.63" cy="70.55" r="0.78"/>
					<circle class="st2" cx="420.87" cy="69.24" r="1.17"/>
				</g>
			</g>
			<g>
				<g>
					<circle class="st2" cx="457.64" cy="64.14" r="1.57"/>
					<circle class="st2" cx="465.5" cy="63.98" r="0.78"/>
					<circle class="st2" cx="461.76" cy="71.54" r="0.78"/>
					<circle class="st2" cx="462.1" cy="67.24" r="0.78"/>
				</g>
			</g>
		</g>
	</g>
	<g>
		<g>
			<g>
				<g>
					<g>
						<path class="st0" d="M123.16,397.79l-3.57,51.43c-0.12,1-0.22,1.72-0.28,2.16c-0.07,0.44-0.66,0.66-1.78,0.66h-10.32
							c-7.01,0-12.01-1.38-15.02-4.13c-3-2.75-4.51-6.69-4.51-11.83c0-2.5,0.19-6.79,0.56-12.86c0.37-6.07,0.87-12.98,1.5-20.74
							c0.63-7.76,1.25-15.96,1.88-24.59c0.63-8.63,1.25-16.77,1.88-24.4c0.62-7.63,1.12-14.33,1.5-20.09
							c0.38-5.76,0.56-9.7,0.56-11.83c0-1.88,1-2.82,3-2.82h66.07c0.75,0,1.44,0.19,2.06,0.56c0.63,0.37,0.94,1.07,0.94,2.06
							l-0.75,11.08c-0.25,3.75-1.28,6.79-3.1,9.1c-1.82,2.32-5.54,3.47-11.17,3.47h-25.9l-1.88,26.47h26.66
							c0.75,0,1.44,0.19,2.06,0.56c0.63,0.38,0.94,1.07,0.94,2.06l-0.75,11.08c-0.25,3.75-1.28,6.79-3.1,9.1
							c-1.82,2.32-5.54,3.47-11.17,3.47H123.16z"/>
					</g>
				</g>
				<g>
					<path class="st0" d="M370.12,400.42c-3.32-2.38-6.92-4.29-10.8-5.73c-3.88-1.44-7.48-2.84-10.79-4.22
						c-3.32-1.38-6.07-2.85-8.26-4.41c-2.19-1.56-3.28-3.66-3.28-6.29c0-2.5,1.06-4.6,3.19-6.29c2.13-1.69,4.94-2.54,8.45-2.54
						c2.63,0,4.66,0.44,6.1,1.31c1.44,0.88,2.5,1.97,3.19,3.29c0.69,1.31,1.13,2.69,1.31,4.13c0.19,1.44,0.28,2.72,0.28,3.85
						c0,1,0.31,1.69,0.94,2.06c0.63,0.38,1.81,0.56,3.57,0.56c6.5,0,11.48-1.44,14.92-4.32c3.44-2.88,5.16-7.07,5.16-12.58
						c0-6.51-2.51-11.86-7.51-16.05c-5.01-4.19-12.83-6.29-23.46-6.29c-5.13,0-10.26,0.59-15.39,1.78
						c-5.13,1.19-9.73,3.16-13.8,5.91c-2.58,1.75-4.82,3.87-6.8,6.3c0.17,0.41,0.38,0.8,0.54,1.22c1.49,4.03,2.25,8.38,2.25,12.94
						c0,6.78-1.44,12.7-4.26,17.59c-0.72,1.25-1.52,2.44-2.36,3.59c1.98,3.57,4.45,6.53,7.45,8.85c3.06,2.38,6.38,4.29,9.95,5.72
						c3.57,1.44,6.88,2.79,9.95,4.04c3.06,1.25,5.6,2.6,7.6,4.04c2,1.44,3,3.35,3,5.72c0,2.63-1.22,4.32-3.66,5.07
						c-2.44,0.75-5.23,1.13-8.35,1.13c-4.13,0-7.45-0.37-9.95-1.13c-2.5-0.75-4.6-1.53-6.29-2.35c-1.69-0.81-3.16-1.6-4.41-2.35
						c-1.25-0.75-2.63-1.13-4.13-1.13c-1.83,0-3.39,0.53-4.69,1.54c1.13,2.33,1.7,5.02,1.7,8.03c0,4.53-1.36,8.53-3.92,11.99
						c0.09,0.07,0.15,0.14,0.24,0.21c2.82,2,6.29,3.6,10.42,4.79c4.13,1.19,8.48,2.06,13.05,2.63c4.57,0.56,8.6,0.84,12.11,0.84
						c12.77,0,22.34-2.88,28.72-8.63c6.38-5.76,9.57-13.14,9.57-22.15c0-5.63-1.1-10.23-3.29-13.8
						C376.19,405.77,373.44,402.8,370.12,400.42z"/>
				</g>
				<g>
					<g>
						<path class="st0" d="M275.93,409.53c4.38-0.81,8.82-1.97,13.33-3.47c4.51-1.5,8.6-3.6,12.3-6.29
							c3.69-2.69,6.69-6.04,9.01-10.04c2.31-4,3.47-8.88,3.47-14.64c0-3.88-0.63-7.51-1.88-10.89c-1.25-3.38-3.26-6.35-6.01-8.92
							c-2.76-2.56-6.38-4.6-10.89-6.1c-4.5-1.5-10.01-2.25-16.52-2.25c-0.12,0-0.24,0.01-0.36,0.01
							c-6.26,15.22-22.49,45.95-51.65,45.95c0,0,0,0,0,0c-0.64,0-1.3-0.09-1.95-0.12c-0.44,2.01-0.81,4.01-1.04,5.96
							c-0.5,4.38-0.75,8.14-0.75,11.26c0,8.51,1.38,15.58,4.13,21.21c2.75,5.63,6.29,10.14,10.6,13.51
							c4.32,3.38,9.2,5.76,14.64,7.13c5.44,1.38,10.92,2.06,16.43,2.06c4.13,0,8.38-0.38,12.76-1.13c4.38-0.75,8.35-1.94,11.92-3.57
							c3.57-1.63,6.48-3.75,8.73-6.38c2.25-2.63,3.38-5.75,3.38-9.38c0-2.75-0.63-5.01-1.88-6.76c-1.25-1.75-2.69-3.13-4.32-4.13
							c-1.63-1-3.22-1.66-4.79-1.97c-1.57-0.31-2.66-0.47-3.29-0.47c-1.38,0-2.47,0.53-3.28,1.59c-0.82,1.07-1.78,2.25-2.91,3.57
							c-1.13,1.31-2.6,2.5-4.41,3.57c-1.82,1.07-4.35,1.6-7.6,1.6c-3.26,0-6.01-0.56-8.26-1.69c-2.25-1.13-4.07-2.56-5.44-4.32
							c-1.38-1.75-2.41-3.78-3.1-6.1c-0.69-2.31-1.03-4.66-1.03-7.04c2,0,4.85-0.09,8.54-0.28
							C267.51,410.84,271.54,410.34,275.93,409.53z M257.44,388.03c0.69-2.88,1.69-5.51,3-7.88c1.31-2.38,2.94-4.35,4.88-5.91
							c1.94-1.56,4.29-2.35,7.04-2.35c3.25,0,5.66,1,7.23,3c1.56,2,2.35,4.26,2.35,6.76c0,4.63-2.41,8.2-7.23,10.7
							c-4.82,2.5-11.11,3.82-18.86,3.94C256.22,393.66,256.75,390.91,257.44,388.03z"/>
					</g>
				</g>
				<g>
					<path class="st0" d="M198.66,363.07c-0.25-1.88-0.72-3.69-1.41-5.44c-0.69-1.75-1.78-3.28-3.28-4.6
						c-1.5-1.31-3.44-2.35-5.82-3.1c-2.38-0.75-5.32-1.13-8.82-1.13H172c-2.38,0-3.69,1.82-3.94,5.44
						c-1,13.77-1.85,25.31-2.53,34.63c-0.69,9.33-1.28,17.02-1.78,23.09c-0.5,6.07-0.84,10.83-1.03,14.27
						c-0.19,3.44-0.28,6.1-0.28,7.98c0,2.88,0.28,5.41,0.84,7.6c0.56,2.19,1.56,4.04,3,5.54c1.44,1.5,3.38,2.66,5.82,3.47
						c2.44,0.82,5.6,1.22,9.48,1.22h6.76c1,0,1.94-0.31,2.82-0.94c0.88-0.63,1.31-1.56,1.31-2.82c0-1.13,0.12-3.5,0.38-7.13
						c0.25-3.63,0.56-7.79,0.94-12.48c0.37-4.69,0.78-9.57,1.22-14.64l2.43-37.69c31.44,0,55.03-27.51,55.03-27.51
						s-11.79,27.51-43.57,34.21c46.85,21.56,67.15-46,67.15-46C209.22,325.25,198.66,363.07,198.66,363.07z"/>
				</g>
				<g>
					<g>
						<g>
							<path class="st0" d="M474.64,367.91c-1.11-4.36-2.9-7.92-5.37-10.7c-2.47-2.78-5.63-4.79-9.47-6.04
								c-3.84-1.26-8.38-1.97-13.64-2.15c-7.01-0.23-12.83,0.76-17.47,2.99c-4.65,2.22-8.95,6.4-12.91,12.53
								c0.9-8.23,1.67-15.41,2.32-21.52c0.64-6.11,1-10.3,1.08-12.55c0.07-2.13-0.17-4.17-0.73-6.13c-0.56-1.96-1.57-3.71-3.02-5.27
								c-0.6-0.64-1.34-1.19-2.11-1.73c-8.06,4.06-16.08,7.33-24.02,9.7c-0.43,0.13-0.87,0.21-1.31,0.28l-2.77,27.14
								c1.03,1.5,1.89,3.08,2.56,4.74c0.08,0.19,0.16,0.39,0.23,0.58c0.17,0.46,0.34,0.93,0.49,1.41c0.15,0.48,0.27,0.97,0.4,1.46
								c0.11,0.45,0.21,0.9,0.29,1.35c0.11,0.59,0.21,1.19,0.28,1.8c0.03,0.27,0.06,0.55,0.09,0.82c0.08,0.86,0.13,1.73,0.13,2.62
								c0,7.2-2.41,12.87-7.16,16.85c-0.18,0.15-0.39,0.29-0.58,0.44l-0.08,0.8c-0.53,4.7-1.25,10.66-1.76,14.9
								c0.8,0.97,1.55,1.98,2.26,3.04c0.25,0.38,0.53,0.74,0.78,1.14c1.42,2.31,2.46,4.95,3.15,7.88c0.63,2.7,0.96,5.65,0.96,8.83
								c0,8.93-2.75,16.59-8.13,22.87c0.28,0.45,0.58,0.9,0.93,1.3c1.39,1.55,3.29,2.77,5.7,3.66c2.41,0.9,5.55,1.41,9.43,1.54
								l6.76,0.23c1.62,0.05,2.73-0.16,3.31-0.64c0.58-0.48,0.89-1.47,0.94-2.97c0.03-0.87,0.26-3.21,0.71-7.02
								c0.44-3.8,0.93-8.11,1.46-12.91c0.54-4.8,1.07-9.54,1.6-14.22c0.53-4.68,0.96-8.33,1.31-10.94
								c0.94-9.36,3.35-16.79,7.22-22.3c3.88-5.51,8.82-8.16,14.82-7.96c4.5,0.15,7.49,1.54,8.97,4.15c1.48,2.62,2.16,5.55,2.05,8.8
								c-0.05,1.5-0.25,3.87-0.61,7.12c-0.36,3.25-0.77,6.92-1.21,11.04c-0.45,4.12-0.97,8.42-1.56,12.91
								c-0.59,4.49-1.14,8.79-1.65,12.9c-0.16,1-0.29,2.06-0.39,3.18c-0.1,1.12-0.17,2.31-0.21,3.56c-0.09,2.63,0.12,4.98,0.61,7.06
								c0.49,2.08,1.4,3.84,2.74,5.26c1.33,1.43,3.23,2.55,5.71,3.38c2.47,0.83,5.71,1.32,9.72,1.45l6,0.2
								c1.13,0.04,2,0.01,2.63-0.1c0.63-0.1,1.11-0.34,1.43-0.7c0.32-0.37,0.56-0.92,0.71-1.67c0.15-0.75,0.31-1.8,0.48-3.18
								c0.56-5.62,1.24-11.82,2.03-18.62c0.79-6.8,1.57-13.31,2.35-19.55c0.77-6.23,1.43-11.78,1.96-16.65
								c0.54-4.87,0.84-8.3,0.91-10.3C476.19,377.64,475.74,372.27,474.64,367.91z"/>
						</g>
						<g>
							<path class="st0" d="M388.89,362.66c0.11,0.45,0.21,0.9,0.29,1.35C389.09,363.55,388.99,363.1,388.89,362.66z"/>
						</g>
						<g>
							<path class="st0" d="M388,359.79c0.18,0.46,0.34,0.93,0.49,1.41C388.34,360.72,388.18,360.26,388,359.79z"/>
						</g>
						<g>
							<path class="st0" d="M389.46,365.81c0.03,0.27,0.06,0.55,0.09,0.82C389.52,366.36,389.49,366.09,389.46,365.81z"/>
						</g>
						<g>
							<path class="st0" d="M387.77,359.21c-0.67-1.67-1.53-3.25-2.56-4.74l0,0C386.24,355.96,387.09,357.55,387.77,359.21z"/>
						</g>
					</g>
				</g>
			</g>
		</g>
		<g>
			<g>
				<path class="st3" d="M129.77,201.81v100.87H87.68v-141.5h54.84c24.05,0,42.88,5.46,56.5,16.38
					c16.17,13.06,24.26,30.79,24.26,53.18c0,21.43-6.91,38.91-20.73,52.46c-13.82,13.55-31.62,20.32-53.39,20.32
					c-2.56,0-6.74-0.14-12.54-0.41v-41.57h6.74c24.53,0,36.8-10.26,36.8-30.79c0-19.28-12.06-28.92-36.18-28.92H129.77z"/>
				<path class="st3" d="M310.06,216.22v31.52h-27.47c-3.73,0-6.37,0.55-7.93,1.66c-1.56,1.11-2.33,2.97-2.33,5.6
					c0,2.97,0.79,4.92,2.39,5.86c1.59,0.93,4.83,1.4,9.74,1.4h28.3v40.43h-33.07c-15.55,0-27.44-3.71-35.66-11.14
					c-8.22-7.43-12.34-18.16-12.34-32.19v-55.46c0-13.55,3.89-24.05,11.66-31.52s18.71-11.2,32.81-11.2h36.59v40.64H285.9
					c-7.26,0-10.88,2.35-10.88,7.05c0,2.76,0.86,4.68,2.59,5.75c1.73,1.07,4.8,1.61,9.22,1.61H310.06z"/>
				<path class="st3" d="M399.11,160.55v40.33c-3.04-1.04-5.39-1.55-7.05-1.55c-3.18,0-5.91,1.18-8.19,3.53
					c-2.28,2.35-3.42,5.18-3.42,8.5c0,2.83,1.24,6.43,3.73,10.78l3.22,5.6c5.81,10.09,8.71,19.84,8.71,29.23
					c0,13.75-4.89,25.4-14.67,34.94c-9.78,9.54-21.72,14.31-35.82,14.31c-6.77,0-13.48-1.56-20.11-4.67v-40.95
					c4.01,2.56,7.57,3.84,10.68,3.84c3.66,0,6.72-1.05,9.18-3.16c2.45-2.11,3.68-4.75,3.68-7.93c0-2.07-1.97-6.6-5.91-13.58
					c-6.29-11.06-9.43-22.12-9.43-33.17c0-13.34,4.75-24.83,14.25-34.47s20.85-14.46,34.05-14.46
					C387.81,157.65,393.51,158.62,399.11,160.55z"/>
			</g>
		</g>
		<g>
			<path class="st0" d="M440.19,153.71c0,0,7.66-30.58,29.21-46.84c1.63-1.23,3.89-1.13,5.36,0.28v0c1.8,1.73,1.66,4.64-0.31,6.17
				c-5.58,4.34-16.35,15.19-28.24,40.27"/>
			<path class="st3" d="M459.65,154.82c-0.97,0.14-2.07,0.3-3.23,0.3c-0.32,0-0.67-0.03-1.02-0.09c0.61,1.54,1.09,3.57,1.09,6.14
				l-0.01,4.15l-2.65-3.19c-0.04-0.05-2.38-2.79-5.27-3.17c-1.42-0.19-2.66-0.69-3.68-1.28c-0.42,2.07-1.96,4.57-5.81,7.26
				c-1.84,1.28-3.42,2.05-3.49,2.08l-3.76,1.81l1.71-3.73c0.06-0.18,0.54-1.8-0.78-4.15c-0.61-1.08-0.94-2.02-1.1-2.83l-1.94,1
				c-1.52,0.78-2.98,1.18-4.29,1.35c-3.68,5.85-5.34,12.95-5.23,18.78c0.19,10.32,3.47,32.75,3.67,42.99
				c0.32,16.16-0.22,35.9-9.44,51.7c-7.81,13.38-23.69,32.43-39.59,44.12c-3.21,2.36-0.66,7.42,3.16,6.28
				c15.2-4.54,36.32-14.06,60.93-33.92c26.65-21.51,36.15-62.24,36.2-94.57c0.02-9.88-2.48-31.77-13.31-41.24
				C461.25,154.59,460.38,154.71,459.65,154.82z"/>
			<path class="st0" d="M454.98,161.17c0,0-2.69-3.23-6.23-3.7c-3.54-0.47-5.81-3.29-5.81-3.29c3.18,6.09-8.02,11.49-8.02,11.49
				s0.93-2.26-0.86-5.45c-1.79-3.19-0.7-4.67-0.7-4.67s0,0-4.34,2.24c-4.34,2.24-8.21,0.9-8.21,0.9s2.34-0.5,5.2-3.15
				c4.44-4.1,6.99-7.11,14.02-9.67c6.12-2.22,16.34-0.59,23.11,7.6c-1.38-0.92-3.94,0.13-6.74,0.13c-1.71,0-4.42-1.22-4.42-1.22
				S454.99,155.02,454.98,161.17z"/>
			<path class="st1" d="M463.53,187.09c-0.41-3.73-1.37-6.79-1.87-8.91c-0.58-2.12-0.97-3.31-0.97-3.31s-0.23,1.26-0.51,3.43
				c-0.33,2.18-0.47,5.23-0.94,8.89c-0.22,1.83-0.47,3.8-0.61,5.88c-0.13,2.08-0.51,4.27-0.7,6.53c-0.48,4.52-0.99,9.33-1.5,14.15
				c-0.16,2.42-0.56,4.81-0.77,7.19c-0.29,2.37-0.36,4.73-0.7,6.99c-0.3,2.26-0.45,4.47-0.63,6.56c-0.21,2.08-0.43,4.04-0.56,5.87
				c-0.29,3.71-0.53,6.8-0.7,8.97c-0.12,2.19-0.13,3.46-0.13,3.46s0.61-1.11,1.56-3.09c0.94-1.98,2.26-4.79,3.43-8.38
				c1.31-3.55,2.47-7.77,3.51-12.32c0.54-2.28,0.99-4.65,1.38-7.08c0.38-2.43,0.82-4.88,1.02-7.37c0.2-2.49,0.39-4.98,0.59-7.43
				c0.17-2.45,0.03-4.89,0.06-7.23C464.56,195.2,464,190.81,463.53,187.09z"/>
		</g>
	</g>
	<g>
		<g>
			<path class="st0" d="M401.51,18.18H100.27H74.06h-3.77c-28.27,0-51.28,23-51.28,51.28v421.9c0,28.27,23,51.28,51.28,51.28h3.77
				v-18.02h-3.77c-18.34,0-33.26-14.92-33.26-33.26V69.45c0-18.34,14.92-33.26,33.26-33.26h3.77h26.21h287.5
				C391.04,29.29,395.73,23.14,401.51,18.18z"/>
			<path class="st0" d="M493.42,18.18h-3.77h-17.4c5.71,4.93,10.38,11.05,13.64,18.02h3.76h3.77c18.34,0,33.26,14.92,33.26,33.26
				v421.9c0,18.34-14.92,33.26-33.26,33.26h-3.77v18.02h3.77c28.27,0,51.28-23,51.28-51.28V69.45
				C544.69,41.18,521.69,18.18,493.42,18.18z"/>
		</g>
	</g>
</g>
</svg>
